<svg xmlns="http://www.w3.org/2000/svg" xmlns:xlink="http://www.w3.org/1999/xlink" id="Ebene_1" x="0px" y="0px" viewBox="0 0 357.2 313.06" style="enable-background:new 0 0 357.2 313.06;" xml:space="preserve">
<style type="text/css">
	.st0{fill:#F8AF42;}
	.st1{fill:#F8A934;}
	.st2{fill:#F8A326;}
	.st3{fill:#363D46;}
	.st4{fill:#3D444D;}
	.st5{fill:#2D343C;}
	.st6{fill:#F79A0F;}
	.st7{fill:#262C33;}
	.st8{fill:#F8A62B;}
	.st9{fill:#F8A121;}
	.st10{fill:#1F252C;}
	.st11{fill:#F79E18;}
	.st12{fill:#2C323A;}
	.st13{fill:#F8AB38;}
	.st14{fill:#F7A120;}
	.st15{fill:#F8A62C;}
	.st16{fill:#2C333B;}
	.st17{fill:#171D21;}
	.st18{fill:#FFFFFF;}
</style>
<path class="st0" d="M168.47,0.79c25.14-2.99,51.24,2.6,72.82,15.88c21.9,13.22,38.93,34.08,47.85,58.02  c-2.08-0.81-4.12-2.1-6.38-2.13c-1.56,0.64-2.88,1.72-4.27,2.62c-9.97-24.86-29.96-45.43-54.45-56.24  c-10.91-4.84-22.66-7.82-34.57-8.64c-3.37-0.21-6.74-0.31-10.1-0.25C175.87,6.8,172.13,3.84,168.47,0.79"></path>
<path class="st1" d="M136.2,9.4c10.3-4.34,21.16-7.32,32.27-8.61c3.66,3.05,7.4,6.01,10.9,9.26c-11.21,0.25-22.39,2.33-32.93,6.14  C143.54,13.23,140.28,10.5,136.2,9.4"></path>
<path class="st2" d="M103.06,31.47c9.66-9.23,21-16.56,33.14-22.07c4.08,1.1,7.34,3.83,10.24,6.79c-1.36,0.5-2.7,1.02-4.03,1.56  c-10.03,4.14-19.45,9.78-27.71,16.81c-1.17,0.99-2.33,2-3.46,3.03C108.65,35.37,105.91,33.34,103.06,31.47"></path>
<path class="st3" d="M146.44,16.19c10.54-3.81,21.72-5.89,32.93-6.14c3.36-0.06,6.73,0.04,10.1,0.25c2.59,2.77,5.37,5.38,8.44,7.64  c12.95,9.73,25.92,19.44,38.9,29.14c11.14,8.99,22.89,17.19,34.19,25.97c2.79,2.19,5.79,4.08,8.87,5.82  c3.49,9.57,5.53,19.66,6.08,29.83c0.19,6.32,0.14,12.68-0.65,18.96c-2.06-4.21-6.26-6.5-9.83-9.23c-3.79-2.81-7.19-6.23-11.54-8.17  c-4.69-0.1-9.38,0.03-14.07-0.01c-2.37-19-11.95-37.24-27.08-49.13c-13.1-10.63-30.27-15.6-47.04-14.34  c1.02-0.52,2.04-1.07,3.05-1.62c-12.19-9.05-24.4-18.07-36.38-27.41C143.74,17.21,145.08,16.69,146.44,16.19"></path>
<path class="st4" d="M189.47,10.3c11.91,0.82,23.66,3.8,34.57,8.64c24.49,10.81,44.48,31.38,54.45,56.24  c0.47,1.23,0.93,2.45,1.38,3.69c-3.08-1.74-6.08-3.63-8.87-5.82c-11.3-8.78-23.05-16.98-34.19-25.97  c-12.98-9.7-25.95-19.41-38.9-29.14C194.84,15.68,192.06,13.07,189.47,10.3"></path>
<path class="st5" d="M114.7,34.56c8.26-7.03,17.68-12.67,27.71-16.81c11.98,9.34,24.19,18.36,36.38,27.41  c-1.01,0.55-2.03,1.1-3.05,1.62c-5.91,0.7-11.79,1.84-17.37,3.92c-4.89,1.78-9.54,4.15-13.89,6.98c-2.68-2.71-5.52-5.26-8.62-7.49  C128.77,45.03,121.81,39.69,114.7,34.56"></path>
<path class="st6" d="M103.06,31.47c2.85,1.87,5.59,3.9,8.18,6.12c-5.83,5.38-11.05,11.43-15.54,17.97  c-11.64,17.08-18.17,37.66-18.04,58.36c-0.29,25.52,9.47,50.91,26.57,69.83c14.34,16.03,33.71,27.57,54.75,32.2  c21.04,4.81,43.56,2.79,63.41-5.67c15.22-6.34,28.72-16.55,39.35-29.11c3.56-4.25,6.79-8.79,9.64-13.55  c2.73,1.95,5.46,3.91,8.17,5.89c-12.77,20.96-32.35,37.76-55.21,46.8c-26.16,10.57-56.25,10.84-82.65,0.91  c-25.83-9.6-47.83-28.95-60.71-53.31c-13.04-24.18-16.55-53.15-10.33-79.85C75.59,66.53,87.16,46.73,103.06,31.47"></path>
<path class="st7" d="M111.24,37.59c1.13-1.03,2.29-2.04,3.46-3.03c7.11,5.13,14.07,10.47,21.16,15.63c3.1,2.23,5.94,4.78,8.62,7.49  c-1.06,0.69-2.1,1.41-3.12,2.14c-6.48,4.81-12.12,10.75-16.71,17.39c-9.61-7.27-19.25-14.51-28.95-21.65  C100.19,49.02,105.41,42.97,111.24,37.59"></path>
<path class="st8" d="M158.37,50.7c5.58-2.08,11.46-3.22,17.37-3.92c16.77-1.26,33.94,3.71,47.04,14.34  c15.13,11.89,24.71,30.13,27.08,49.13c4.69,0.04,9.38-0.09,14.07,0.01c-3.91,4.55-7.68,9.21-11.51,13.82  c-6.69-5.19-13.4-10.38-20.38-15.18c-0.01,0.74-0.03,2.22-0.05,2.96c-4.37-0.57-8.78-0.6-13.18-0.65c-0.23-0.25-0.69-0.75-0.93-1  c4.66-0.34,9.73,1.11,14.05-1.13c-2.86-14.06-10.54-27.37-22.4-35.7c-9.7-7.04-22.06-10.15-33.94-8.77  C170.46,59.25,163.96,55.53,158.37,50.7"></path>
<path class="st9" d="M144.48,57.68c4.35-2.83,9-5.2,13.89-6.98c5.59,4.83,12.09,8.55,17.22,13.91c-4.2,0.58-8.33,1.62-12.27,3.16  c-2.69,1.09-5.28,2.39-7.76,3.87c-3.97-4.81-9.44-7.91-14.2-11.82C142.38,59.09,143.42,58.37,144.48,57.68"></path>
<path class="st10" d="M77.66,113.92c-0.13-20.7,6.4-41.28,18.04-58.36c9.7,7.14,19.34,14.38,28.95,21.65l-0.28,0.41  c-6.53,9.71-10.58,21.01-12.02,32.61c-4.64,0.02-9.29,0.01-13.94,0.01c7.64,9.27,15.28,18.53,22.93,27.78  c7.62-9.27,15.29-18.48,22.88-27.76c-4.71-0.02-9.41-0.01-14.12-0.04c1.44-7.64,4.05-15.1,8.25-21.67c2.58,1.37,5.12,2.82,7.44,4.6  c28.53,21.81,57.34,43.26,85.89,65.04c10.02,7.67,20.41,14.86,30.06,22.98c-10.63,12.56-24.13,22.77-39.35,29.11  c-19.85,8.46-42.37,10.48-63.41,5.67c-21.04-4.63-40.41-16.17-54.75-32.2C87.13,164.83,77.37,139.44,77.66,113.92"></path>
<path class="st11" d="M124.65,77.21c4.59-6.64,10.23-12.58,16.71-17.39c4.76,3.91,10.23,7.01,14.2,11.82  c-6.76,4.16-12.52,9.89-16.93,16.47c-4.63-3.66-9.05-7.65-14.26-10.49L124.65,77.21"></path>
<path class="st12" d="M163.32,67.77c3.94-1.54,8.07-2.58,12.27-3.16c11.88-1.38,24.24,1.73,33.94,8.77  c11.86,8.33,19.54,21.64,22.4,35.7c-4.32,2.24-9.39,0.79-14.05,1.13c-3.83-4.3-8.76-7.34-13.3-10.81  C190.76,88.95,176.79,78.66,163.32,67.77"></path>
<path class="st7" d="M155.56,71.64c2.48-1.48,5.07-2.78,7.76-3.87c13.47,10.89,27.44,21.18,41.26,31.63  c4.54,3.47,9.47,6.51,13.3,10.81c0.24,0.25,0.7,0.75,0.93,1c7.32,8.97,14.7,17.89,22.11,26.79c1.78-2.11,3.54-4.24,5.28-6.38  c3.21,1.72,6.29,3.67,9.13,5.96c7.42,5.92,15.41,11.15,22.41,17.6c-1.84,4.28-3.98,8.43-6.36,12.44c-2.85,4.76-6.08,9.3-9.64,13.55  c-9.65-8.12-20.04-15.31-30.06-22.98c-28.55-21.78-57.36-43.23-85.89-65.04c-2.32-1.78-4.86-3.23-7.44-4.6l0.28-0.44  C143.04,81.53,148.8,75.8,155.56,71.64"></path>
<path class="st13" d="M278.49,75.18c1.39-0.9,2.71-1.98,4.27-2.62c2.26,0.03,4.3,1.32,6.38,2.13c4.68,13.23,7.22,27.26,6.9,41.31  c-3.27-2.56-6.63-5.01-10.09-7.3c-0.55-10.17-2.59-20.26-6.08-29.83C279.42,77.63,278.96,76.41,278.49,75.18"></path>
<path class="st6" d="M124.37,77.62c5.21,2.84,9.63,6.83,14.26,10.49l-0.28,0.44c-4.2,6.57-6.81,14.03-8.25,21.67  c4.71,0.03,9.41,0.02,14.12,0.04c-7.59,9.28-15.26,18.49-22.88,27.76c-7.65-9.25-15.29-18.51-22.93-27.78  c4.65,0,9.3,0.01,13.94-0.01C113.79,98.63,117.84,87.33,124.37,77.62"></path>
<path class="st14" d="M232.04,108.9c6.98,4.8,13.69,9.99,20.38,15.18c-2.08,2.51-4.16,5.01-6.22,7.54c-1.74,2.14-3.5,4.27-5.28,6.38  c-7.41-8.9-14.79-17.82-22.11-26.79c4.4,0.05,8.81,0.08,13.18,0.65C232.01,111.12,232.03,109.64,232.04,108.9"></path>
<path class="st15" d="M285.95,108.7c3.46,2.29,6.82,4.74,10.09,7.3c-0.28,9.79-1.26,19.74-4.34,29.07l-0.59-0.01  c-2.67-1.64-5.42-3.32-8.59-3.71c1.2-4.5,2.09-9.08,2.78-13.69C286.09,121.38,286.14,115.02,285.95,108.7"></path>
<path class="st16" d="M263.93,110.26c4.35,1.94,7.75,5.36,11.54,8.17c3.57,2.73,7.77,5.02,9.83,9.23  c-0.69,4.61-1.58,9.19-2.78,13.69c-1.25,4.72-2.85,9.35-4.78,13.83c-7-6.45-14.99-11.68-22.41-17.6c-2.84-2.29-5.92-4.24-9.13-5.96  c2.06-2.53,4.14-5.03,6.22-7.54C256.25,119.47,260.02,114.81,263.93,110.26"></path>
<path class="st14" d="M282.52,141.35c3.17,0.39,5.92,2.07,8.59,3.71l0.2,0.76c-2.07,9.86-6.66,19.06-11.76,27.69  c-2.71-1.98-5.44-3.94-8.17-5.89c2.38-4.01,4.52-8.16,6.36-12.44C279.67,150.7,281.27,146.07,282.52,141.35"></path>
<path class="st17" d="M68.36,275.28c3.01-1.88,6.57,2.65,3.98,5.1c-1.3,1.93-4.35,1.38-5.34-0.56  C65.79,278.26,66.8,276.11,68.36,275.28"></path>
<path class="st17" d="M100.35,275.28c3.03-1.88,6.57,2.65,4,5.09c-1.53,2.26-5.15,1.09-5.71-1.36  C97.95,277.6,99.17,275.97,100.35,275.28"></path>
<path class="st17" d="M112.01,277.58c1.93-0.93,3.86-1.84,5.8-2.76c0.03,2.7,0.03,5.4,0.03,8.11c1.72-0.01,3.45,0,5.17,0  c0,1.86,0,3.73-0.01,5.59c-1.72,0-3.44-0.01-5.16,0c0,3.6-0.14,7.21,0.29,10.8c1.84,0.2,3.53-0.33,5.02-1.39  c-0.26,1.83-0.38,3.69-0.81,5.49c-2.92,2.85-9.04,1.79-10.03-2.48c-0.66-4.1-0.15-8.29-0.3-12.43c-1.28,0-2.56,0.02-3.83,0.03  c0-1.87,0-3.74,0-5.61c1.27,0,2.55,0,3.83,0C112.01,281.14,112.01,279.36,112.01,277.58"></path>
<path class="st17" d="M142.41,276.28c4.74-2.55,10.91-1.57,15.11,1.67c-0.68,0.89-1.36,1.8-2.04,2.71  c-3.03-2.13-6.99-3.78-10.62-2.1c-2.73,0.81-3.44,4.88-1.2,6.6c3.6,2.77,8.56,3.04,12.07,6c3.86,3.3,2.77,10.5-1.86,12.59  c-5.2,2.48-11.69,1.09-15.87-2.75c0.58-0.65,1.73-1.95,2.3-2.59c3.09,2.83,7.78,4.73,11.8,2.69c2.81-1.12,3.52-5.46,1.18-7.38  c-3.76-2.97-9.13-3.03-12.62-6.44C137.87,284.06,138.53,278.36,142.41,276.28"></path>
<path class="st17" d="M186.76,276.73c1.64-2.3,4.68-1.72,7.12-1.79c0.05,0.75,0.13,2.27,0.18,3.03c-1.49-0.1-2.97-0.18-4.45-0.24  c-0.15,1.72-0.23,3.45-0.31,5.18c1.42,0.01,2.86,0.02,4.29,0.03c0.01,0.71,0.03,2.12,0.04,2.83c-1.42-0.01-2.84-0.02-4.25-0.02  c-0.01,6.39,0,12.78-0.01,19.18c-0.84,0-2.52,0-3.36,0c0-6.39,0-12.78,0-19.17c-0.75,0-2.25,0-3,0c0-0.71,0-2.12,0-2.83  c0.73,0,2.2,0,2.93,0C186.12,280.87,185.72,278.61,186.76,276.73"></path>
<path class="st17" d="M199.05,276.41c1.01-0.49,2.02-0.98,3.03-1.47c-0.07,2.66-0.08,5.32-0.08,7.99c1.86,0,3.73,0,5.6,0.01  c0,0.71,0.02,2.12,0.03,2.82c-1.88,0-3.75-0.01-5.62,0c0.23,5.46-0.61,11.04,0.7,16.41c1.62-0.09,3.25-0.18,4.88-0.28  c0.46,4.46-7.97,4.22-8.39,0.18c-0.45-5.41-0.06-10.87-0.19-16.3c-0.7-0.01-2.1-0.02-2.8-0.03c-0.02-0.69-0.05-2.08-0.07-2.77  c0.72-0.02,2.15-0.04,2.86-0.05C199.01,280.74,199.02,278.57,199.05,276.41"></path>
<path class="st17" d="M317.23,274.93c1.24,0,2.48-0.01,3.72-0.01c3.33,10.01,6.78,19.98,10.13,29.98c-1.21,0.01-2.4,0.02-3.59,0.03  c-0.83-2.34-1.67-4.67-2.5-7c-3.96,0-7.91,0-11.87,0c-0.83,2.34-1.66,4.69-2.52,7.03c-1.18-0.04-2.34-0.07-3.51-0.1  C310.48,294.89,313.89,284.92,317.23,274.93"></path>
<path class="st17" d="M339.61,277.57c4.67-4.39,12.82-3.23,16.4,2.01c-0.84,0.75-1.67,1.51-2.5,2.27c-1.61-1.52-3.11-3.47-5.45-3.79  c-3.27-0.8-6.61,1.29-8.03,4.2c-2.61,4.99-2.94,11.49,0.24,16.32c2.42,3.54,7.77,4.5,11.18,1.84c2.05-1.5,2.27-4.2,2.77-6.47  c-1.94-0.02-3.87-0.03-5.8-0.03c0-0.75-0.01-2.24-0.01-2.98c2.86-0.01,5.71-0.01,8.57-0.01c0.48,3.65,0.4,7.85-2.33,10.66  c-4.73,5.47-14.82,4.18-17.93-2.41C333.26,292.38,334.16,283.09,339.61,277.57"></path>
<path class="st18" d="M314.15,294.93c1.69-5.34,3.48-10.65,4.94-16.06c1.45,5.41,3.23,10.71,4.89,16.06  C320.7,294.93,317.42,294.93,314.15,294.93"></path>
<path class="st17" d="M0.01,282.91c2.12,0.25,4.74-0.7,6.44,1c3.42-1.8,8.24-1.22,10.36,2.27c2.84,4.82,2.8,11.43-0.41,16.07  c-2.47,3.25-7.29,3.37-10.6,1.38c0.03,2.09,0.04,4.19,0.04,6.29c-1.95,1.02-3.88,2.07-5.8,3.14  C-0.03,303.01,0.03,292.96,0.01,282.91"></path>
<path class="st17" d="M27.18,284.14c4.54-2.52,10.74-1.24,13.78,3.03c-0.77,1.69-2.33,2.83-3.52,4.21c-1.6-1.84-3.77-3.5-6.37-2.81  c-4.44,1.53-4.44,9.21,0.02,10.71c2.53,0.72,4.68-0.87,6.49-2.41c1.23,1.11,2.45,2.21,3.68,3.31c-3.02,4.45-9.32,6.29-14.07,3.54  C20.18,299.78,20.22,288.1,27.18,284.14"></path>
<path class="st17" d="M41.92,282.96c2.17-0.03,4.35-0.03,6.52-0.03c1.53,4.88,3.13,9.74,4.51,14.67c1.31-4.95,2.94-9.8,4.5-14.67  c2.1,0,4.21,0,6.32,0c-2.7,7.32-5.2,14.7-7.93,22.01c-2.03-0.01-4.05-0.02-6.08-0.01C47.23,297.58,44.59,290.26,41.92,282.96"></path>
<path class="st17" d="M67.01,282.93c1.94,0,3.89,0,5.83,0c0,7.33,0,14.66,0,22c-1.94-0.01-3.89,0-5.83,0  C67.01,297.6,67.01,290.26,67.01,282.93"></path>
<path class="st17" d="M80.93,283.82c4.39-1.74,9.43-0.94,13.57,1.12c-0.61,1.52-1.22,3.04-1.82,4.56c-2.78-1.15-5.73-1.76-8.73-1.66  c-0.28,0.48-0.84,1.46-1.12,1.94c3.19,1.32,6.69,1.9,9.67,3.68c3.98,2.33,3.17,9.19-1.19,10.67c-4.73,1.68-10.09,0.82-14.47-1.49  c0.61-1.53,1.23-3.05,1.85-4.57c3.35,1.19,7.85,3.33,10.99,0.76c-1.85-3.16-6.42-2.45-9.25-4.45  C76.12,292.39,76.56,285.45,80.93,283.82"></path>
<path class="st17" d="M99.01,282.93c1.94,0,3.89,0,5.83,0c0,7.33,0,14.66,0,22c-1.94-0.01-3.89-0.01-5.83,0  C99.01,297.6,99.01,290.26,99.01,282.93"></path>
<path class="st17" d="M167.38,283.38c3.84-1.24,8.62-0.28,10.94,3.24c2.7,4.29,2.74,10.3-0.13,14.52  c-2.35,3.47-7.03,4.64-10.91,3.36C158.67,301.35,158.74,286.47,167.38,283.38"></path>
<path class="st17" d="M210.91,282.93c0.84,0,2.51,0,3.34,0c1.29,5.81,2.87,11.57,3.92,17.43c1.28-5.87,3.06-11.62,4.55-17.44  c0.74,0,2.23,0.01,2.97,0.01c1.53,5.83,3.31,11.59,4.55,17.49c1.05-5.89,2.65-11.66,3.97-17.49c0.82,0,2.45,0,3.27-0.01  c-1.95,7.35-3.84,14.7-5.84,22.03c-1.02-0.03-2.03-0.05-3.04-0.07c-1.4-5.93-3.34-11.72-4.5-17.7c-1.08,6.01-3.03,11.83-4.51,17.75  c-0.74,0-2.22,0-2.96,0C214.78,297.58,212.73,290.29,210.91,282.93"></path>
<path class="st17" d="M240.88,284.64c3.46-1.57,7.37-2.29,11.11-1.33c2.46,0.75,4.17,3.14,4.26,5.71c0.32,5.29,0.03,10.6,0.12,15.91  c-0.84,0-2.53,0-3.38,0c0.02-0.7,0.05-2.09,0.07-2.78c-3.93,4.39-13.71,3.82-14.06-3.13c-0.7-7.37,8.85-9.21,14.14-6.61  c-0.14-2.19,0.06-5.14-2.29-6.28c-2.88-1.08-5.94-0.02-8.68,0.96C241.85,286.48,241.2,285.25,240.88,284.64"></path>
<path class="st17" d="M262.65,282.93c0.84,0,2.53,0,3.38,0c-0.02,0.68-0.06,2.03-0.08,2.71c2.21-2.8,5.76-3.08,9.04-2.45  c-0.31,1.13-0.65,2.26-1.01,3.39c-2.81-1.37-6.75-0.62-7.55,2.76c-0.94,5.11-0.18,10.4-0.42,15.59c-0.84,0-2.52,0-3.36,0  C262.64,297.59,262.64,290.26,262.65,282.93"></path>
<path class="st17" d="M278.71,285.71c3.53-4.22,11.57-3.82,13.96,1.4c1.36,2.38,1.32,5.16,1.42,7.82c-4.97,0.01-9.94-0.03-14.9,0.02  c0.61,2.32,0.93,5.26,3.36,6.45c2.99,1.71,6.49,0.27,9.28-1.18c0.4,0.8,0.8,1.6,1.22,2.41c-3.55,2.19-8.21,3.31-12.12,1.39  C274.95,300.3,274.41,290.87,278.71,285.71"></path>
<path class="st18" d="M168.24,286.12c3.64-1.64,7.92,1.08,8.45,4.92c1.03,3.98-0.15,9.81-4.68,11.01c-3.45,0.92-6.98-1.8-7.38-5.25  C163.94,293.09,164.19,287.8,168.24,286.12"></path>
<path class="st18" d="M281.92,286.77c2.41-1.86,6.38-1.28,8.04,1.32c0.67,1.33,1,2.79,1.47,4.22c-4.11,0.05-8.21,0.05-12.31-0.01  C279.8,290.38,280.1,288.01,281.92,286.77"></path>
<path class="st18" d="M5.81,289.4c1.46-0.5,2.96-1.16,4.56-0.89c3.11,1.88,3.27,6.48,1.73,9.45c-1.27,2.53-4.48,1.15-6.31,0.06  C5.86,295.15,5.85,292.27,5.81,289.4"></path>
<path class="st18" d="M244.43,294.6c2.73-1.4,5.82-0.39,8.59,0.34c-0.01,1.6-0.02,3.2-0.02,4.81c-2.27,1.59-4.97,3.26-7.86,2.41  C241.79,301.5,241.24,295.88,244.43,294.6"></path>
</svg>