<svg xmlns="http://www.w3.org/2000/svg" xmlns:xlink="http://www.w3.org/1999/xlink" id="Ebene_1" x="0px" y="0px" width="168px" height="44px" viewBox="0 0 168 44" xml:space="preserve">
<path fill="#413E33" d="M166.441,38.826c0,2.137-1.729,3.867-3.863,3.867H62.408c-2.137,0-3.866-1.73-3.866-3.867V3.865  C58.542,1.73,60.271,0,62.408,0h100.17c2.135,0,3.863,1.73,3.863,3.865V38.826z"></path>
<path fill="#F1574D" d="M52.904,38.826c0,2.137-1.73,3.867-3.865,3.867H3.866C1.729,42.693,0,40.963,0,38.826V3.865  C0,1.73,1.729,0,3.866,0h45.173c2.135,0,3.865,1.73,3.865,3.865V38.826z"></path>
<path fill="#F1574D" d="M70.35,7.616h2.787l4.47,11.559h-2.414l-0.883-2.313h-5.253l-0.901,2.313h-2.414L70.35,7.616z   M69.668,15.095h4.047l-1.974-5.117L69.668,15.095z"></path>
<path fill="#F1574D" d="M89.796,17.763c-1.071,0.852-3.161,1.582-4.93,1.582c-3.418,0-6.153-2.211-6.153-5.934  c0-3.756,2.735-5.966,6.153-5.966c1.868,0,3.331,0.629,4.487,1.563l-1.105,1.819c-0.9-0.748-1.973-1.173-3.331-1.173  c-2.107,0-3.739,1.359-3.739,3.756c0,2.363,1.632,3.723,3.841,3.723c0.918,0,1.768-0.236,2.396-0.611v-2.125h-3.043V12.34h5.424  L89.796,17.763L89.796,17.763z"></path>
<path fill="#F1574D" d="M103.107,17.763c-1.071,0.852-3.162,1.582-4.932,1.582c-3.417,0-6.152-2.211-6.152-5.934  c0-3.756,2.735-5.966,6.152-5.966c1.869,0,3.332,0.629,4.488,1.563l-1.105,1.819c-0.899-0.748-1.973-1.173-3.332-1.173  c-2.105,0-3.738,1.359-3.738,3.756c0,2.363,1.633,3.723,3.842,3.723c0.918,0,1.768-0.236,2.396-0.611v-2.125h-3.043V12.34h5.424  V17.763z"></path>
<path fill="#F1574D" d="M106.048,7.616h5.082c2.839,0,4.608,1.155,4.608,3.756c0,1.836-1.311,3.195-3.043,3.553l3.688,3.859v0.391  h-2.669l-3.856-4.166h-1.43v4.166h-2.38V7.616z M108.428,9.689v3.45h2.959c1.088,0,1.868-0.646,1.868-1.717  c0-1.139-0.78-1.733-1.868-1.733H108.428z"></path>
<path fill="#F1574D" d="M123.795,7.445c3.417,0,5.967,2.55,5.967,5.966c0,3.383-2.55,5.934-5.967,5.934  c-3.381,0-5.932-2.551-5.932-5.934C117.863,9.995,120.414,7.445,123.795,7.445 M123.813,17.118c2.125,0,3.604-1.615,3.604-3.707  c0-2.124-1.479-3.705-3.604-3.705c-2.09,0-3.604,1.581-3.604,3.705C120.208,15.503,121.723,17.118,123.813,17.118"></path>
<polygon fill="#FFFFFF" points="74.954,30.027 72.864,34.975 70.28,34.975 65.81,23.415 68.377,23.415 71.776,32.307 73.918,27.206   72.489,23.415 75.073,23.415 78.168,31.915 81.5,23.415 84.101,23.415 79.493,34.975 76.909,34.975 "></polygon>
<path fill="#FFFFFF" d="M88.623,23.416h2.789l4.469,11.559h-2.413l-0.884-2.312h-5.252l-0.9,2.312h-2.415L88.623,23.416z   M87.941,30.896h4.047l-1.973-5.117L87.941,30.896z"></path>
<polygon fill="#FFFFFF" points="105.079,30.027 102.986,34.975 100.402,34.975 95.934,23.415 98.501,23.415 101.898,32.307   104.043,27.206 102.613,23.415 105.197,23.415 108.292,31.915 111.622,23.415 114.225,23.415 109.617,34.975 107.033,34.975 "></polygon>
<rect x="116.283" y="23.415" fill="#FFFFFF" width="2.379" height="11.56"></rect>
<path fill="#FFFFFF" d="M31.063,7.445l-4.725,12.138L21.456,7.445h-1.492l1.94,4.761l-3.351,7.562l-0.072,0.134L13.407,7.445h-1.572  L5.869,21.341h1.408l1.451-3.372h7.562l1.368,3.372h0.058h1.352h0.14l3.291-7.499l3.104,7.499h1.493l5.46-13.896H31.063z   M9.117,16.886l3.493-8.03l3.29,8.03H9.117z"></path>
<rect x="23.001" y="22.549" fill="#FFFFFF" width="1.518" height="6.783"></rect>
<rect x="26.035" y="22.549" fill="#FFFFFF" width="1.518" height="6.783"></rect>
<polygon fill="#FFFFFF" points="30.627,22.591 30.546,22.591 29.068,22.591 29.068,29.332 30.546,29.332 30.627,29.332   32.104,29.332 32.104,22.591 "></polygon>
<rect x="19.461" y="22.549" fill="#FFFFFF" width="1.517" height="6.783"></rect>
<rect x="33.62" y="7.443" fill="#FFFFFF" width="1.518" height="21.89"></rect>
<polygon fill="#FFFFFF" points="38.13,7.443 38.211,7.443 39.689,7.443 39.689,29.332 38.211,29.332 38.13,29.332 36.654,29.332   36.654,7.443 "></polygon>
<polygon fill="#FFFFFF" points="6.586,22.591 6.545,22.591 5.807,22.591 5.807,34.975 6.545,34.975 6.586,34.975 7.322,34.975   7.322,22.591 "></polygon>
<rect x="8.84" y="22.591" fill="#FFFFFF" width="1.517" height="6.741"></rect>
<rect x="11.875" y="22.591" fill="#FFFFFF" width="1.518" height="6.741"></rect>
<polygon fill="#FFFFFF" points="16.387,22.591 16.467,22.591 17.944,22.591 17.944,29.332 16.467,29.332 16.387,29.332   14.909,29.332 14.909,22.591 "></polygon>
<rect x="13.392" y="33.467" fill="#FFFFFF" width="1.518" height="1.508"></rect>
<rect x="16.426" y="33.467" fill="#FFFFFF" width="1.518" height="1.508"></rect>
<rect x="10.356" y="33.467" fill="#FFFFFF" width="1.519" height="1.508"></rect>
<rect x="19.461" y="33.467" fill="#FFFFFF" width="1.517" height="1.508"></rect>
<rect x="22.496" y="33.467" fill="#FFFFFF" width="1.517" height="1.508"></rect>
<rect x="25.529" y="33.467" fill="#FFFFFF" width="1.518" height="1.508"></rect>
<rect x="28.563" y="33.467" fill="#FFFFFF" width="1.518" height="1.508"></rect>
<rect x="31.598" y="33.467" fill="#FFFFFF" width="1.519" height="1.508"></rect>
<rect x="34.633" y="33.467" fill="#FFFFFF" width="1.517" height="1.508"></rect>
<rect x="37.667" y="33.467" fill="#FFFFFF" width="1.518" height="1.508"></rect>
<rect x="41.207" y="7.443" fill="#FFFFFF" width="1.518" height="21.89"></rect>
<polygon fill="#FFFFFF" points="45.8,7.443 45.72,7.443 44.241,7.443 44.241,34.975 45.72,34.975 45.8,34.975 47.276,34.975   47.276,7.443 "></polygon>
</svg>