<svg xmlns="http://www.w3.org/2000/svg" xmlns:xlink="http://www.w3.org/1999/xlink" id="Ebene_1" x="0px" y="0px" viewBox="0 0 113.4 45.8" style="enable-background:new 0 0 113.4 45.8;" xml:space="preserve">
<style type="text/css">
	.st0{fill:#020202;}
	.st1{fill:#E1191D;}
</style>
<g>
	<g>
		<path class="st0" d="M16.5,0c5.2,0,8.7,0.1,10.7,0.4c2.8,0.4,4.5,1.7,5.1,4c0.4,1.6,0.6,4.2,0.6,7.9c0,3.7-0.2,6.4-0.6,8    c-0.6,2.3-2.3,3.6-5.1,4c-1.9,0.3-5.5,0.4-10.6,0.4c-5.2,0-8.8-0.1-10.7-0.4c-2.8-0.4-4.5-1.7-5.1-4C0.2,18.7,0,16,0,12.2    c0-3.6,0.2-6.2,0.6-7.8c0.6-2.3,2.3-3.6,5.1-4C7.7,0.1,11.3,0,16.5,0 M16.5,6.3c-3.9,0-6.2,0.1-7,0.3C8.6,6.8,8,7.3,7.7,8.1    c-0.3,0.8-0.4,2.4-0.4,4.8c0,1.4,0.1,2.5,0.2,3.1c0.3,1.2,1.2,1.9,2.6,2.1c1.1,0.1,3.2,0.2,6.3,0.2c2.9,0,4.9-0.1,5.9-0.2    c1-0.1,1.7-0.3,2.2-0.7c0.4-0.3,0.7-0.8,0.9-1.4c0.2-0.6,0.2-1.7,0.2-3.1c0-1.7-0.1-3-0.2-3.8c-0.1-0.8-0.3-1.4-0.6-1.8    c-0.4-0.5-1-0.8-1.9-0.9C22,6.3,19.9,6.3,16.5,6.3 M33.8,0.3h10l7.4,8.4l7.4-8.4h10.1L57.2,12.2l12.1,12.1H59l-7.8-8.6l-7.8,8.6    H32.9l12.3-12.1L33.8,0.3z M70.8,0.3h7.6v24h-7.6V0.3z M81.8,24.3v-24h17.3c3.1,0,5.1,0,6,0.1c0.9,0,1.9,0.2,3,0.4    c2.4,0.5,4,1.9,4.7,4.1c0.3,0.8,0.4,1.7,0.5,2.7c0.1,1,0.1,2.4,0.1,4.4c0,2.1-0.1,3.8-0.2,4.9c-0.1,1.1-0.3,2.1-0.6,3    c-0.7,2.1-2.2,3.4-4.4,3.9c-1,0.2-2.2,0.4-3.3,0.5c-1.2,0.1-3.1,0.1-5.8,0.1H81.8z M89,18.2h10.2c1.9,0,3.2-0.1,4.1-0.2    c0.9-0.1,1.5-0.3,1.9-0.6c0.4-0.3,0.7-0.9,0.8-1.6c0.2-0.7,0.2-1.9,0.2-3.3c0-1.5-0.1-2.6-0.2-3.4c-0.1-0.8-0.4-1.3-0.7-1.7    c-0.4-0.4-1-0.7-1.7-0.8c-0.8-0.1-2.2-0.2-4.5-0.2H89V18.2z"></path>
		<path class="st1" d="M44.7,39c0-1.1-0.3-1.9-0.9-2.3c-0.4-0.3-0.9-0.5-1.6-0.6c-0.7-0.1-1.7-0.2-3-0.2c-1.1,0-2,0.1-2.6,0.2    c-0.6,0.1-1.1,0.3-1.4,0.6c-0.6,0.4-0.9,1.2-1,2.3H44.7z M44.8,42.3h1.8c0,1.3-0.5,2.3-1.4,2.8c-0.9,0.5-2.5,0.8-4.8,0.8    c-1.9,0-3.3-0.1-4.3-0.2c-1-0.1-1.7-0.4-2.2-0.7c-1.1-0.8-1.7-2.4-1.7-4.7c0-1.7,0.2-2.9,0.7-3.7c0.5-0.8,1.1-1.3,2-1.6    c0.9-0.3,2.3-0.4,4.3-0.4c1.9,0,3.3,0.1,4.2,0.3c0.9,0.2,1.5,0.6,2,1.2c0.4,0.5,0.7,1.1,0.9,1.7c0.2,0.6,0.2,1.6,0.3,2.9H34.2    c0,1.4,0.3,2.3,0.8,2.9c0.3,0.4,0.9,0.6,1.6,0.7c0.7,0.1,1.9,0.2,3.6,0.2c1.3,0,2.2-0.1,2.8-0.2c0.6-0.1,1-0.3,1.3-0.6    C44.6,43.2,44.7,42.8,44.8,42.3"></path>
		<path class="st0" d="M48,41.8h1.9v0.3c0,0.6,0.1,1,0.2,1.3c0.1,0.3,0.4,0.5,0.8,0.6c0.5,0.2,2,0.3,4.4,0.3c1.5,0,2.6,0,3.2-0.1    c0.6-0.1,1-0.2,1.3-0.4c0.4-0.3,0.5-0.7,0.5-1.2c0-0.7-0.2-1.1-0.6-1.4c-0.4-0.2-1.2-0.4-2.3-0.4c-0.4,0-2.1,0-5.1-0.1    c-0.8,0-1.4-0.1-1.9-0.2c-0.5-0.1-0.9-0.3-1.2-0.5c-0.6-0.5-0.9-1.2-0.9-2.3c0-1.2,0.4-2,1.1-2.5c0.4-0.3,1-0.5,1.9-0.6    s2.2-0.2,3.9-0.2c1.9,0,3.3,0.1,4.2,0.3c0.9,0.2,1.5,0.6,2,1.1c0.2,0.3,0.3,0.5,0.4,0.8c0.1,0.3,0.1,0.7,0.1,1.4h-1.9    c0-0.7-0.1-1.1-0.3-1.3c-0.2-0.2-0.7-0.4-1.4-0.5c-0.7-0.1-1.7-0.2-3-0.2c-2.4,0-3.9,0.2-4.4,0.5c-0.4,0.3-0.6,0.7-0.6,1.3    c0,0.6,0.2,1,0.7,1.2c0.4,0.2,1.3,0.3,2.7,0.3c1.3,0,3,0,5.1,0.1c1.3,0,2.2,0.3,2.7,0.8c0.6,0.5,0.8,1.3,0.8,2.4    c0,0.7-0.1,1.2-0.3,1.6c-0.2,0.4-0.5,0.8-1,1c-0.4,0.2-1,0.4-1.9,0.5c-0.9,0.1-2.1,0.1-3.8,0.1c-1.8,0-3.2-0.1-4.1-0.2    c-0.9-0.1-1.5-0.3-2-0.6c-0.4-0.3-0.7-0.6-0.9-1c-0.2-0.4-0.3-1-0.3-1.7C47.9,42.3,48,42.1,48,41.8"></path>
		<path class="st0" d="M70.1,40.6c-1.5,0-2.5,0-3.1,0.1c-0.6,0.1-1,0.1-1.2,0.3c-0.5,0.3-0.7,0.8-0.7,1.5c0,0.7,0.3,1.2,0.8,1.5    c0.4,0.2,2,0.3,4.5,0.3c1.9,0,3.1-0.1,3.7-0.4c0.6-0.2,0.9-0.7,0.9-1.5c0-0.7-0.3-1.2-1-1.5C73.4,40.7,72.1,40.6,70.1,40.6     M65.6,37.9h-1.8c0-0.2,0-0.4,0-0.5c0-1.2,0.4-2,1.3-2.4c0.9-0.4,2.5-0.6,4.9-0.6c1.9,0,3.3,0.1,4.1,0.3c0.8,0.2,1.5,0.5,2,1    c0.4,0.4,0.6,0.9,0.8,1.4c0.1,0.5,0.2,1.5,0.2,2.8v5.9h-1.8l0-1.3h-0.1c-0.4,0.6-1,1-1.6,1.2c-0.6,0.2-1.8,0.3-3.5,0.3    c-2,0-3.3,0-4.1-0.1c-0.8-0.1-1.3-0.3-1.7-0.6c-0.4-0.3-0.7-0.6-0.8-1c-0.2-0.4-0.2-0.9-0.2-1.6c0-0.9,0.1-1.5,0.3-2    c0.2-0.5,0.6-0.8,1.2-1c0.6-0.3,2-0.4,4.2-0.4c2.3,0,3.8,0.1,4.5,0.2c0.7,0.1,1.3,0.5,1.6,1h0.2V39c0-1-0.2-1.7-0.5-2.1    c-0.3-0.4-0.8-0.6-1.4-0.8c-0.6-0.1-1.7-0.2-3.1-0.2c-1.9,0-3.1,0.1-3.7,0.3c-0.6,0.2-0.8,0.7-0.8,1.5V37.9z"></path>
	</g>
	<rect x="78.9" y="29.6" class="st0" width="1.8" height="16.1"></rect>
	<g>
		<path class="st0" d="M94.8,39c0-1.1-0.3-1.9-0.9-2.3c-0.4-0.3-0.9-0.5-1.6-0.6c-0.7-0.1-1.7-0.2-3-0.2c-1.1,0-2,0.1-2.6,0.2    c-0.6,0.1-1.1,0.3-1.4,0.6c-0.6,0.4-0.9,1.2-1,2.3H94.8z M94.9,42.3h1.8c0,1.3-0.5,2.3-1.4,2.8c-0.9,0.5-2.5,0.8-4.8,0.8    c-1.9,0-3.3-0.1-4.3-0.2c-1-0.1-1.7-0.4-2.2-0.7c-1.1-0.8-1.7-2.4-1.7-4.7c0-1.7,0.2-2.9,0.7-3.7c0.5-0.8,1.1-1.3,2-1.6    c0.9-0.3,2.3-0.4,4.3-0.4c1.9,0,3.3,0.1,4.2,0.3c0.9,0.2,1.5,0.6,2,1.2c0.4,0.5,0.7,1.1,0.9,1.7c0.2,0.6,0.2,1.6,0.3,2.9H84.3    c0,1.4,0.3,2.3,0.8,2.9c0.3,0.4,0.9,0.6,1.6,0.7c0.7,0.1,1.9,0.2,3.6,0.2c1.3,0,2.2-0.1,2.8-0.2c0.6-0.1,1-0.3,1.3-0.6    C94.7,43.2,94.8,42.8,94.9,42.3"></path>
		<path class="st0" d="M98,41.8h1.9v0.3c0,0.6,0.1,1,0.2,1.3c0.1,0.3,0.4,0.5,0.8,0.6c0.5,0.2,2,0.3,4.4,0.3c1.5,0,2.6,0,3.2-0.1    c0.6-0.1,1-0.2,1.3-0.4c0.4-0.3,0.5-0.7,0.5-1.2c0-0.7-0.2-1.1-0.6-1.4c-0.4-0.2-1.2-0.4-2.3-0.4c-0.4,0-2.1,0-5.1-0.1    c-0.8,0-1.4-0.1-1.9-0.2c-0.5-0.1-0.9-0.3-1.2-0.5c-0.6-0.5-0.9-1.2-0.9-2.3c0-1.2,0.4-2,1.1-2.5c0.4-0.3,1-0.5,1.9-0.6    c0.9-0.1,2.2-0.2,3.9-0.2c1.9,0,3.3,0.1,4.2,0.3c0.9,0.2,1.5,0.6,2,1.1c0.2,0.3,0.3,0.5,0.4,0.8c0.1,0.3,0.1,0.7,0.1,1.4h-1.9    c0-0.7-0.1-1.1-0.3-1.3c-0.2-0.2-0.7-0.4-1.4-0.5c-0.7-0.1-1.7-0.2-3-0.2c-2.4,0-3.9,0.2-4.4,0.5c-0.4,0.3-0.6,0.7-0.6,1.3    c0,0.6,0.2,1,0.7,1.2c0.4,0.2,1.3,0.3,2.7,0.3c1.3,0,3,0,5.1,0.1c1.3,0,2.2,0.3,2.8,0.8c0.6,0.5,0.8,1.3,0.8,2.4    c0,0.7-0.1,1.2-0.3,1.6s-0.5,0.8-1,1c-0.4,0.2-1,0.4-1.9,0.5c-0.9,0.1-2.1,0.1-3.8,0.1c-1.8,0-3.2-0.1-4.1-0.2s-1.5-0.3-2-0.6    c-0.4-0.3-0.7-0.6-0.9-1c-0.2-0.4-0.3-1-0.3-1.7C98,42.3,98,42.1,98,41.8"></path>
	</g>
</g>
</svg>